<svg xmlns="http://www.w3.org/2000/svg" version="1.1" xmlns:xlink="http://www.w3.org/1999/xlink" xmlns:svgjs="http://svgjs.com/svgjs" width="1600" height="900" preserveAspectRatio="none" viewBox="0 0 1600 900">
    <g mask="url(&quot;#SvgjsMask1753&quot;)" fill="none">
        <g mask="url(&quot;#SvgjsMask1754&quot;)">
            <path d="M649 473L671 451L693 451L715 451L737 451M847 495L869 473L891 473L913 473L935 473M1155 539L1177 517L1199 517M583 473L605 495L627 495L649 517L671 517M187 473L209 451L231 451L253 451M1067 517L1089 495L1111 495L1133 495L1155 495L1177 495L1199 495L1221 495L1243 495L1265 517L1287 517L1309 517L1331 517L1353 539L1375 539L1397 539L1419 539L1441 539M671 473L693 495L715 495L737 517L759 517L781 517M33 473L55 451L77 451L99 451L121 451L143 451L165 451L187 451M1133 539L1155 517M429 473L451 451L473 451L495 451L517 451L539 429L561 429L583 429L605 407L627 407L649 407L671 407L693 407L715 407L737 429L759 429L781 429M341 473L363 451L385 451L407 451L429 451L451 429L473 429L495 429L517 429M1199 539L1221 561L1243 561L1265 561M627 473L649 451L671 429L693 429L715 429M1397 561L1419 583L1441 583L1463 605M1111 539L1133 517M495 473L517 495L539 495M-11 451L11 451L33 473L55 473L77 473L99 473L121 473L143 473L165 473L187 473L209 473L231 473L253 473L275 473L297 473L319 473L341 473L363 473L385 473L407 473L429 473L451 473L473 473L495 473L517 473L539 473L561 473L583 473L605 473L627 473L649 473L671 473L693 473L715 473L737 473L759 473L781 473L803 473L825 495L847 495L869 495L891 495L913 495L935 495L957 495L979 495L1001 517L1023 517L1045 517L1067 517L1089 517L1111 539L1133 539L1155 539L1177 539L1199 539L1221 539L1243 539L1265 539L1287 561L1309 561L1331 561L1353 561L1375 561L1397 561L1419 561L1441 561" stroke="rgba(193, 193, 193, 1)" stroke-width="3.67"></path>
            <path d="M1435.5 561 a5.5 5.5 0 1 0 11 0 a5.5 5.5 0 1 0 -11 0zM731.5 451 a5.5 5.5 0 1 0 11 0 a5.5 5.5 0 1 0 -11 0zM929.5 473 a5.5 5.5 0 1 0 11 0 a5.5 5.5 0 1 0 -11 0zM1193.5 517 a5.5 5.5 0 1 0 11 0 a5.5 5.5 0 1 0 -11 0zM665.5 517 a5.5 5.5 0 1 0 11 0 a5.5 5.5 0 1 0 -11 0zM247.5 451 a5.5 5.5 0 1 0 11 0 a5.5 5.5 0 1 0 -11 0zM1435.5 539 a5.5 5.5 0 1 0 11 0 a5.5 5.5 0 1 0 -11 0zM775.5 517 a5.5 5.5 0 1 0 11 0 a5.5 5.5 0 1 0 -11 0zM181.5 451 a5.5 5.5 0 1 0 11 0 a5.5 5.5 0 1 0 -11 0zM1149.5 517 a5.5 5.5 0 1 0 11 0 a5.5 5.5 0 1 0 -11 0zM775.5 429 a5.5 5.5 0 1 0 11 0 a5.5 5.5 0 1 0 -11 0zM511.5 429 a5.5 5.5 0 1 0 11 0 a5.5 5.5 0 1 0 -11 0zM1259.5 561 a5.5 5.5 0 1 0 11 0 a5.5 5.5 0 1 0 -11 0zM709.5 429 a5.5 5.5 0 1 0 11 0 a5.5 5.5 0 1 0 -11 0zM1457.5 605 a5.5 5.5 0 1 0 11 0 a5.5 5.5 0 1 0 -11 0zM1127.5 517 a5.5 5.5 0 1 0 11 0 a5.5 5.5 0 1 0 -11 0zM533.5 495 a5.5 5.5 0 1 0 11 0 a5.5 5.5 0 1 0 -11 0z" fill="rgba(193, 193, 193, 1)"></path>
            <path d="M869 341L891 319L913 319M1001 363L1023 385L1045 385L1067 385M1067 363L1089 341L1111 341L1133 341L1155 341M517 407L539 407L561 407L583 407M231 429L253 407M759 341L781 319L803 319L825 319L847 319M1045 363L1067 341L1089 319L1111 319L1133 319L1155 319L1177 319L1199 319L1221 319L1243 319M737 341L759 319L781 297L803 297L825 297L847 297L869 297L891 297L913 297M275 451L297 429L319 407M891 341L913 363L935 363L957 363L979 385L1001 385L1023 407L1045 407M693 341L715 363L737 363L759 363L781 363L803 363L825 363L847 363L869 363L891 363L913 385L935 385M209 429L231 407M935 341L957 319L979 319L1001 319L1023 319L1045 319L1067 297L1089 297L1111 297L1133 297L1155 297L1177 275L1199 275L1221 275L1243 275L1265 275L1287 275L1309 275M-11 429L11 429L33 429L55 429L77 429L99 429L121 429L143 429L165 429L187 429L209 429L231 429L253 429L275 451L297 451L319 429L341 407L363 407L385 407L407 407L429 407L451 407L473 407L495 407L517 407L539 385L561 385L583 385L605 385L627 363L649 341L671 341L693 341L715 341L737 341L759 341L781 341L803 341L825 341L847 341L869 341L891 341L913 341L935 341L957 341L979 363L1001 363L1023 363L1045 363L1067 363L1089 363L1111 363" stroke="rgba(255, 255, 255, 1)" stroke-width="3.67"></path>
            <path d="M1105.5 363 a5.5 5.5 0 1 0 11 0 a5.5 5.5 0 1 0 -11 0zM907.5 319 a5.5 5.5 0 1 0 11 0 a5.5 5.5 0 1 0 -11 0zM1061.5 385 a5.5 5.5 0 1 0 11 0 a5.5 5.5 0 1 0 -11 0zM1149.5 341 a5.5 5.5 0 1 0 11 0 a5.5 5.5 0 1 0 -11 0zM577.5 407 a5.5 5.5 0 1 0 11 0 a5.5 5.5 0 1 0 -11 0zM247.5 407 a5.5 5.5 0 1 0 11 0 a5.5 5.5 0 1 0 -11 0zM841.5 319 a5.5 5.5 0 1 0 11 0 a5.5 5.5 0 1 0 -11 0zM1237.5 319 a5.5 5.5 0 1 0 11 0 a5.5 5.5 0 1 0 -11 0zM907.5 297 a5.5 5.5 0 1 0 11 0 a5.5 5.5 0 1 0 -11 0zM313.5 407 a5.5 5.5 0 1 0 11 0 a5.5 5.5 0 1 0 -11 0zM1039.5 407 a5.5 5.5 0 1 0 11 0 a5.5 5.5 0 1 0 -11 0zM929.5 385 a5.5 5.5 0 1 0 11 0 a5.5 5.5 0 1 0 -11 0zM225.5 407 a5.5 5.5 0 1 0 11 0 a5.5 5.5 0 1 0 -11 0zM1303.5 275 a5.5 5.5 0 1 0 11 0 a5.5 5.5 0 1 0 -11 0z" fill="rgba(255, 255, 255, 1)"></path>
            <path d="M165 495L187 517L209 517L231 517M121 495L143 517M275 495L297 517M77 495L99 517L121 517M-11 473L11 473L33 495L55 495L77 495L99 495L121 495L143 495L165 495L187 495L209 495L231 495L253 495L275 495L297 495L319 495L341 517L363 517L385 517" stroke="rgba(255, 255, 255, 1)" stroke-width="3.67"></path>
            <path d="M379.5 517 a5.5 5.5 0 1 0 11 0 a5.5 5.5 0 1 0 -11 0zM225.5 517 a5.5 5.5 0 1 0 11 0 a5.5 5.5 0 1 0 -11 0zM137.5 517 a5.5 5.5 0 1 0 11 0 a5.5 5.5 0 1 0 -11 0zM291.5 517 a5.5 5.5 0 1 0 11 0 a5.5 5.5 0 1 0 -11 0zM115.5 517 a5.5 5.5 0 1 0 11 0 a5.5 5.5 0 1 0 -11 0z" fill="rgba(255, 255, 255, 1)"></path>
            <path d="M429 363L451 385L473 385L495 385L517 385M1001 275L1023 253L1045 253L1067 253M385 385L407 385M649 319L671 319M957 275L979 297M825 253L847 275L869 275L891 275L913 275L935 275L957 297M165 385L187 407L209 407M935 253L957 253L979 253L1001 253M847 253L869 253L891 253M143 407L165 407M1023 275L1045 297M671 297L693 297L715 297L737 297L759 297M-11 407L11 407L33 407L55 407L77 407L99 407L121 407L143 407L165 385L187 385L209 385L231 385L253 385L275 385L297 385L319 385L341 385L363 385L385 385L407 363L429 363L451 363L473 363L495 363L517 363L539 363L561 363L583 363L605 363L627 341L649 319L671 297L693 275L715 275L737 275L759 275L781 253L803 253L825 253L847 253L869 231L891 231L913 231L935 253L957 275L979 275L1001 275L1023 275L1045 275L1067 275" stroke="rgba(255, 0, 0, 1)" stroke-width="3.67"></path>
            <path d="M1061.5 275 a5.5 5.5 0 1 0 11 0 a5.5 5.5 0 1 0 -11 0zM511.5 385 a5.5 5.5 0 1 0 11 0 a5.5 5.5 0 1 0 -11 0zM1061.5 253 a5.5 5.5 0 1 0 11 0 a5.5 5.5 0 1 0 -11 0zM401.5 385 a5.5 5.5 0 1 0 11 0 a5.5 5.5 0 1 0 -11 0zM665.5 319 a5.5 5.5 0 1 0 11 0 a5.5 5.5 0 1 0 -11 0zM973.5 297 a5.5 5.5 0 1 0 11 0 a5.5 5.5 0 1 0 -11 0zM951.5 297 a5.5 5.5 0 1 0 11 0 a5.5 5.5 0 1 0 -11 0zM203.5 407 a5.5 5.5 0 1 0 11 0 a5.5 5.5 0 1 0 -11 0zM995.5 253 a5.5 5.5 0 1 0 11 0 a5.5 5.5 0 1 0 -11 0zM885.5 253 a5.5 5.5 0 1 0 11 0 a5.5 5.5 0 1 0 -11 0zM159.5 407 a5.5 5.5 0 1 0 11 0 a5.5 5.5 0 1 0 -11 0zM1039.5 297 a5.5 5.5 0 1 0 11 0 a5.5 5.5 0 1 0 -11 0zM753.5 297 a5.5 5.5 0 1 0 11 0 a5.5 5.5 0 1 0 -11 0z" fill="rgba(255, 0, 0, 1)"></path>
            <path d="M1023 561L1045 583M1155 561L1177 561L1199 561M1441 627L1463 649L1485 671L1507 671L1529 671M781 539L803 561L825 561L847 583L869 583L891 583M583 561L605 539L627 517M517 561L539 583L561 583M1375 583L1397 583M1331 583L1353 605L1375 605M737 539L759 561L781 583L803 583L825 583M341 561L363 539M1485 649L1507 627M1419 627L1441 605M319 561L341 583L363 583L385 583L407 583L429 583L451 583L473 583L495 583L517 583M495 561L517 539M539 561L561 539L583 539L605 517M605 561L627 561L649 561L671 561M1397 605L1419 605M-11 495L11 495L33 517L55 517L77 539L99 539L121 539L143 539L165 539L187 539L209 539L231 539L253 539L275 561L297 561L319 561L341 561L363 561L385 561L407 561L429 561L451 561L473 561L495 561L517 561L539 561L561 561L583 561L605 561L627 539L649 539L671 539L693 539L715 539L737 539L759 539L781 539L803 539L825 539L847 561L869 561L891 561L913 561L935 561L957 561L979 561L1001 561L1023 561L1045 561L1067 561L1089 561L1111 561L1133 561L1155 561L1177 583L1199 583L1221 583L1243 583L1265 583L1287 583L1309 583L1331 583L1353 583L1375 583L1397 605L1419 627L1441 627L1463 627L1485 649L1507 649L1529 649" stroke="rgba(255, 255, 255, 1)" stroke-width="3.67"></path>
            <path d="M1523.5 649 a5.5 5.5 0 1 0 11 0 a5.5 5.5 0 1 0 -11 0zM1039.5 583 a5.5 5.5 0 1 0 11 0 a5.5 5.5 0 1 0 -11 0zM1193.5 561 a5.5 5.5 0 1 0 11 0 a5.5 5.5 0 1 0 -11 0zM1523.5 671 a5.5 5.5 0 1 0 11 0 a5.5 5.5 0 1 0 -11 0zM885.5 583 a5.5 5.5 0 1 0 11 0 a5.5 5.5 0 1 0 -11 0zM621.5 517 a5.5 5.5 0 1 0 11 0 a5.5 5.5 0 1 0 -11 0zM555.5 583 a5.5 5.5 0 1 0 11 0 a5.5 5.5 0 1 0 -11 0zM1391.5 583 a5.5 5.5 0 1 0 11 0 a5.5 5.5 0 1 0 -11 0zM1369.5 605 a5.5 5.5 0 1 0 11 0 a5.5 5.5 0 1 0 -11 0zM819.5 583 a5.5 5.5 0 1 0 11 0 a5.5 5.5 0 1 0 -11 0zM357.5 539 a5.5 5.5 0 1 0 11 0 a5.5 5.5 0 1 0 -11 0zM1501.5 627 a5.5 5.5 0 1 0 11 0 a5.5 5.5 0 1 0 -11 0zM1435.5 605 a5.5 5.5 0 1 0 11 0 a5.5 5.5 0 1 0 -11 0zM511.5 583 a5.5 5.5 0 1 0 11 0 a5.5 5.5 0 1 0 -11 0zM511.5 539 a5.5 5.5 0 1 0 11 0 a5.5 5.5 0 1 0 -11 0zM599.5 517 a5.5 5.5 0 1 0 11 0 a5.5 5.5 0 1 0 -11 0zM665.5 561 a5.5 5.5 0 1 0 11 0 a5.5 5.5 0 1 0 -11 0zM1413.5 605 a5.5 5.5 0 1 0 11 0 a5.5 5.5 0 1 0 -11 0z" fill="rgba(255, 255, 255, 1)"></path>
            <path d="M1287 209L1309 231L1331 231L1353 231L1375 231L1397 231L1419 231L1441 231L1463 231L1485 231L1507 231L1529 231L1551 231M1199 209L1221 231L1243 231L1265 231L1287 253L1309 253L1331 253L1353 253L1375 253L1397 253L1419 253M979 209L1001 231M1111 209L1133 231M957 209L979 231M1089 209L1111 231M1045 209L1067 231L1089 253L1111 253L1133 253L1155 253L1177 253L1199 253L1221 253L1243 253L1265 253M737 253L759 231M1023 209L1045 231M1155 209L1177 187L1199 187M715 253L737 231M1177 209L1199 231M935 209L957 231M121 385L143 363M99 385L121 363M-11 385L11 385L33 385L55 385L77 385L99 385L121 385L143 385L165 363L187 363L209 363L231 363L253 363L275 363L297 363L319 363L341 363L363 363L385 363L407 341L429 341L451 341L473 341L495 341L517 341L539 341L561 341L583 341L605 341L627 319L649 297L671 275L693 253L715 253L737 253L759 253L781 231L803 231L825 231L847 231L869 209L891 209L913 209L935 209L957 209L979 209L1001 209L1023 209L1045 209L1067 209L1089 209L1111 209L1133 209L1155 209L1177 209L1199 209L1221 209L1243 209L1265 209L1287 209L1309 209L1331 209L1353 209L1375 209L1397 209L1419 209" stroke="rgba(255, 255, 255, 1)" stroke-width="3.67"></path>
            <path d="M1413.5 209 a5.5 5.5 0 1 0 11 0 a5.5 5.5 0 1 0 -11 0zM1545.5 231 a5.5 5.5 0 1 0 11 0 a5.5 5.5 0 1 0 -11 0zM1413.5 253 a5.5 5.5 0 1 0 11 0 a5.5 5.5 0 1 0 -11 0zM995.5 231 a5.5 5.5 0 1 0 11 0 a5.5 5.5 0 1 0 -11 0zM1127.5 231 a5.5 5.5 0 1 0 11 0 a5.5 5.5 0 1 0 -11 0zM973.5 231 a5.5 5.5 0 1 0 11 0 a5.5 5.5 0 1 0 -11 0zM1105.5 231 a5.5 5.5 0 1 0 11 0 a5.5 5.5 0 1 0 -11 0zM1259.5 253 a5.5 5.5 0 1 0 11 0 a5.5 5.5 0 1 0 -11 0zM753.5 231 a5.5 5.5 0 1 0 11 0 a5.5 5.5 0 1 0 -11 0zM1039.5 231 a5.5 5.5 0 1 0 11 0 a5.5 5.5 0 1 0 -11 0zM1193.5 187 a5.5 5.5 0 1 0 11 0 a5.5 5.5 0 1 0 -11 0zM731.5 231 a5.5 5.5 0 1 0 11 0 a5.5 5.5 0 1 0 -11 0zM1193.5 231 a5.5 5.5 0 1 0 11 0 a5.5 5.5 0 1 0 -11 0zM951.5 231 a5.5 5.5 0 1 0 11 0 a5.5 5.5 0 1 0 -11 0zM137.5 363 a5.5 5.5 0 1 0 11 0 a5.5 5.5 0 1 0 -11 0zM115.5 363 a5.5 5.5 0 1 0 11 0 a5.5 5.5 0 1 0 -11 0z" fill="rgba(255, 255, 255, 1)"></path>
            <path d="M869 605L891 627M1067 605L1089 583L1111 583L1133 583M693 583L715 605M297 605L319 583M825 605L847 627L869 627L891 649L913 649L935 649L957 649L979 649L1001 649L1023 649L1045 649M1001 605L1023 583M913 605L935 583L957 583M671 583L693 605M1133 605L1155 627L1177 627L1199 627L1221 627L1243 627L1265 649L1287 649L1309 649L1331 649L1353 649L1375 671L1397 671L1419 671L1441 671L1463 671L1485 693L1507 693M1089 605L1111 627L1133 627L1155 649L1177 649L1199 649L1221 649L1243 649L1265 671L1287 671L1309 671L1331 671L1353 671L1375 693L1397 693L1419 693L1441 693L1463 693M935 605L957 627L979 627L1001 627L1023 627L1045 627L1067 627L1089 627L1111 649L1133 649L1155 671L1177 671L1199 671L1221 671L1243 671L1265 693M715 583L737 583L759 583M759 605L781 627L803 627L825 627L847 649M1265 627L1287 605L1309 605M605 583L627 605L649 605M-11 517L11 517L33 539L55 539L77 561L99 561L121 561L143 561L165 561L187 561L209 561L231 561L253 561L275 583L297 605L319 605L341 605L363 605L385 605L407 605L429 605L451 605L473 605L495 605L517 605L539 605L561 605L583 583L605 583L627 583L649 583L671 583L693 583L715 583L737 605L759 605L781 605L803 605L825 605L847 605L869 605L891 605L913 605L935 605L957 605L979 605L1001 605L1023 605L1045 605L1067 605L1089 605L1111 605L1133 605L1155 605L1177 605L1199 605L1221 605L1243 605L1265 627L1287 627" stroke="rgba(193, 193, 193, 1)" stroke-width="3.67"></path>
            <path d="M1281.5 627 a5.5 5.5 0 1 0 11 0 a5.5 5.5 0 1 0 -11 0zM885.5 627 a5.5 5.5 0 1 0 11 0 a5.5 5.5 0 1 0 -11 0zM1127.5 583 a5.5 5.5 0 1 0 11 0 a5.5 5.5 0 1 0 -11 0zM709.5 605 a5.5 5.5 0 1 0 11 0 a5.5 5.5 0 1 0 -11 0zM313.5 583 a5.5 5.5 0 1 0 11 0 a5.5 5.5 0 1 0 -11 0zM1039.5 649 a5.5 5.5 0 1 0 11 0 a5.5 5.5 0 1 0 -11 0zM1017.5 583 a5.5 5.5 0 1 0 11 0 a5.5 5.5 0 1 0 -11 0zM951.5 583 a5.5 5.5 0 1 0 11 0 a5.5 5.5 0 1 0 -11 0zM687.5 605 a5.5 5.5 0 1 0 11 0 a5.5 5.5 0 1 0 -11 0zM1501.5 693 a5.5 5.5 0 1 0 11 0 a5.5 5.5 0 1 0 -11 0zM1457.5 693 a5.5 5.5 0 1 0 11 0 a5.5 5.5 0 1 0 -11 0zM1259.5 693 a5.5 5.5 0 1 0 11 0 a5.5 5.5 0 1 0 -11 0zM753.5 583 a5.5 5.5 0 1 0 11 0 a5.5 5.5 0 1 0 -11 0zM841.5 649 a5.5 5.5 0 1 0 11 0 a5.5 5.5 0 1 0 -11 0zM1303.5 605 a5.5 5.5 0 1 0 11 0 a5.5 5.5 0 1 0 -11 0zM643.5 605 a5.5 5.5 0 1 0 11 0 a5.5 5.5 0 1 0 -11 0z" fill="rgba(193, 193, 193, 1)"></path>
            <path d="M583 319L605 297L627 275M77 363L99 363M495 319L517 297L539 297L561 297M363 341L385 341M-11 363L11 363L33 363L55 363L77 363L99 341L121 341L143 341L165 341L187 341L209 341L231 341L253 341L275 341L297 341L319 341L341 341L363 341L385 319L407 319L429 319L451 319L473 319L495 319L517 319L539 319L561 319L583 319L605 319L627 297L649 275L671 253L693 231" stroke="rgba(255, 255, 255, 1)" stroke-width="3.67"></path>
            <path d="M687.5 231 a5.5 5.5 0 1 0 11 0 a5.5 5.5 0 1 0 -11 0zM621.5 275 a5.5 5.5 0 1 0 11 0 a5.5 5.5 0 1 0 -11 0zM93.5 363 a5.5 5.5 0 1 0 11 0 a5.5 5.5 0 1 0 -11 0zM555.5 297 a5.5 5.5 0 1 0 11 0 a5.5 5.5 0 1 0 -11 0zM379.5 341 a5.5 5.5 0 1 0 11 0 a5.5 5.5 0 1 0 -11 0z" fill="rgba(255, 255, 255, 1)"></path>
            <path d="M429 627L451 649L473 649L495 649L517 649L539 649M803 649L825 649M693 649L715 627L737 627L759 627M341 627L363 649L385 649L407 649L429 649M561 627L583 649M671 649L693 627M649 649L671 627M627 649L649 627M583 627L605 627L627 627M913 671L935 693M-11 539L11 539L33 561L55 561L77 583L99 583L121 583L143 583L165 583L187 583L209 583L231 583L253 583L275 605L297 627L319 627L341 627L363 627L385 627L407 627L429 627L451 627L473 627L495 627L517 627L539 627L561 627L583 627L605 649L627 649L649 649L671 649L693 649L715 649L737 649L759 649L781 649L803 649L825 671L847 671L869 671L891 671L913 671L935 671L957 671L979 671" stroke="rgba(193, 193, 193, 1)" stroke-width="3.67"></path>
            <path d="M973.5 671 a5.5 5.5 0 1 0 11 0 a5.5 5.5 0 1 0 -11 0zM533.5 649 a5.5 5.5 0 1 0 11 0 a5.5 5.5 0 1 0 -11 0zM819.5 649 a5.5 5.5 0 1 0 11 0 a5.5 5.5 0 1 0 -11 0zM753.5 627 a5.5 5.5 0 1 0 11 0 a5.5 5.5 0 1 0 -11 0zM423.5 649 a5.5 5.5 0 1 0 11 0 a5.5 5.5 0 1 0 -11 0zM577.5 649 a5.5 5.5 0 1 0 11 0 a5.5 5.5 0 1 0 -11 0zM687.5 627 a5.5 5.5 0 1 0 11 0 a5.5 5.5 0 1 0 -11 0zM665.5 627 a5.5 5.5 0 1 0 11 0 a5.5 5.5 0 1 0 -11 0zM643.5 627 a5.5 5.5 0 1 0 11 0 a5.5 5.5 0 1 0 -11 0zM621.5 627 a5.5 5.5 0 1 0 11 0 a5.5 5.5 0 1 0 -11 0zM929.5 693 a5.5 5.5 0 1 0 11 0 a5.5 5.5 0 1 0 -11 0z" fill="rgba(193, 193, 193, 1)"></path>
            <path d="M-11 341L11 341L33 341L55 341L77 341L99 319L121 319L143 319L165 319L187 319L209 319L231 319L253 319L275 319L297 319L319 319L341 319L363 319L385 297L407 297L429 297L451 297L473 297" stroke="rgba(193, 193, 193, 1)" stroke-width="3.67"></path>
            <path d="M467.5 297 a5.5 5.5 0 1 0 11 0 a5.5 5.5 0 1 0 -11 0z" fill="rgba(193, 193, 193, 1)"></path>
            <path d="M693 671L715 693L737 693L759 693L781 693L803 693M891 693L913 693M1001 693L1023 671L1045 671L1067 671L1089 671L1111 671L1133 671L1155 693L1177 693L1199 693L1221 693L1243 693M957 693L979 715L1001 715L1023 715L1045 715L1067 715M319 649L341 649M649 671L671 693L693 693M935 715L957 715M1089 715L1111 693L1133 693M583 671L605 693L627 693L649 693M1067 693L1089 693M-11 561L11 583L33 583L55 583L77 605L99 605L121 605L143 605L165 605L187 605L209 605L231 605L253 605L275 627L297 649L319 649L341 671L363 671L385 671L407 671L429 671L451 671L473 671L495 671L517 671L539 671L561 671L583 671L605 671L627 671L649 671L671 671L693 671L715 671L737 671L759 671L781 671L803 671L825 693L847 693L869 693L891 693L913 715L935 715L957 693L979 693L1001 693L1023 693L1045 693L1067 693L1089 715L1111 715L1133 715L1155 715L1177 715L1199 715L1221 715" stroke="rgba(255, 255, 255, 1)" stroke-width="3.67"></path>
            <path d="M1215.5 715 a5.5 5.5 0 1 0 11 0 a5.5 5.5 0 1 0 -11 0zM797.5 693 a5.5 5.5 0 1 0 11 0 a5.5 5.5 0 1 0 -11 0zM907.5 693 a5.5 5.5 0 1 0 11 0 a5.5 5.5 0 1 0 -11 0zM1237.5 693 a5.5 5.5 0 1 0 11 0 a5.5 5.5 0 1 0 -11 0zM1061.5 715 a5.5 5.5 0 1 0 11 0 a5.5 5.5 0 1 0 -11 0zM335.5 649 a5.5 5.5 0 1 0 11 0 a5.5 5.5 0 1 0 -11 0zM687.5 693 a5.5 5.5 0 1 0 11 0 a5.5 5.5 0 1 0 -11 0zM951.5 715 a5.5 5.5 0 1 0 11 0 a5.5 5.5 0 1 0 -11 0zM1127.5 693 a5.5 5.5 0 1 0 11 0 a5.5 5.5 0 1 0 -11 0zM643.5 693 a5.5 5.5 0 1 0 11 0 a5.5 5.5 0 1 0 -11 0zM1083.5 693 a5.5 5.5 0 1 0 11 0 a5.5 5.5 0 1 0 -11 0z" fill="rgba(255, 255, 255, 1)"></path>
            <path d="M-11 319L11 319L33 319L55 319L77 319" stroke="rgba(193, 193, 193, 1)" stroke-width="3.67"></path>
            <path d="M71.5 319 a5.5 5.5 0 1 0 11 0 a5.5 5.5 0 1 0 -11 0z" fill="rgba(193, 193, 193, 1)"></path>
            <path d="M407 693L429 715L451 715L473 715L495 715L517 715L539 715M583 715L605 737L627 737L649 737L671 737L693 737M187 627L209 649L231 649M385 693L407 715M1265 737L1287 715M561 693L583 693M363 693L385 715M1309 759L1331 781M1045 737L1067 759M1001 737L1023 759L1045 759M979 737L1001 759M1243 737L1265 715M-11 583L11 605L33 605L55 605L77 627L99 627L121 627L143 627L165 627L187 627L209 627L231 627L253 627L275 649L297 671L319 671L341 693L363 693L385 693L407 693L429 693L451 693L473 693L495 693L517 693L539 693L561 693L583 715L605 715L627 715L649 715L671 715L693 715L715 715L737 715L759 715L781 715L803 715L825 715L847 715L869 715L891 715L913 737L935 737L957 737L979 737L1001 737L1023 737L1045 737L1067 737L1089 737L1111 737L1133 737L1155 737L1177 737L1199 737L1221 737L1243 737L1265 737L1287 737L1309 759L1331 759" stroke="rgba(255, 0, 0, 1)" stroke-width="3.67"></path>
            <path d="M1325.5 759 a5.5 5.5 0 1 0 11 0 a5.5 5.5 0 1 0 -11 0zM533.5 715 a5.5 5.5 0 1 0 11 0 a5.5 5.5 0 1 0 -11 0zM687.5 737 a5.5 5.5 0 1 0 11 0 a5.5 5.5 0 1 0 -11 0zM225.5 649 a5.5 5.5 0 1 0 11 0 a5.5 5.5 0 1 0 -11 0zM401.5 715 a5.5 5.5 0 1 0 11 0 a5.5 5.5 0 1 0 -11 0zM1281.5 715 a5.5 5.5 0 1 0 11 0 a5.5 5.5 0 1 0 -11 0zM577.5 693 a5.5 5.5 0 1 0 11 0 a5.5 5.5 0 1 0 -11 0zM379.5 715 a5.5 5.5 0 1 0 11 0 a5.5 5.5 0 1 0 -11 0zM1325.5 781 a5.5 5.5 0 1 0 11 0 a5.5 5.5 0 1 0 -11 0zM1061.5 759 a5.5 5.5 0 1 0 11 0 a5.5 5.5 0 1 0 -11 0zM1039.5 759 a5.5 5.5 0 1 0 11 0 a5.5 5.5 0 1 0 -11 0zM995.5 759 a5.5 5.5 0 1 0 11 0 a5.5 5.5 0 1 0 -11 0zM1259.5 715 a5.5 5.5 0 1 0 11 0 a5.5 5.5 0 1 0 -11 0z" fill="rgba(255, 0, 0, 1)"></path>
            <path d="M341 297L363 275M-11 297L11 297L33 297L55 297L77 297L99 297L121 297L143 297L165 297L187 297L209 297L231 297L253 297L275 297L297 297L319 297L341 297L363 297L385 275L407 275L429 275L451 275L473 275L495 275L517 275L539 275L561 275L583 275" stroke="rgba(255, 0, 0, 1)" stroke-width="3.67"></path>
            <path d="M577.5 275 a5.5 5.5 0 1 0 11 0 a5.5 5.5 0 1 0 -11 0zM357.5 275 a5.5 5.5 0 1 0 11 0 a5.5 5.5 0 1 0 -11 0z" fill="rgba(255, 0, 0, 1)"></path>
            <path d="M165 649L187 649M-11 605L11 627L33 627L55 627L77 649L99 649L121 649L143 649L165 649L187 671L209 671L231 671L253 671L275 671L297 693L319 693L341 715" stroke="rgba(255, 255, 255, 1)" stroke-width="3.67"></path>
            <path d="M335.5 715 a5.5 5.5 0 1 0 11 0 a5.5 5.5 0 1 0 -11 0zM181.5 649 a5.5 5.5 0 1 0 11 0 a5.5 5.5 0 1 0 -11 0z" fill="rgba(255, 255, 255, 1)"></path>
            <path d="M1023 187L1045 165L1067 165M759 209L781 187L803 187M1133 187L1155 187M737 209L759 187L781 165L803 165M1507 143L1529 165L1551 165M627 253L649 231L671 209L693 187L715 187L737 187L759 165L781 143L803 143L825 143L847 143L869 143L891 143L913 143L935 143L957 143L979 165L1001 165L1023 165L1045 143L1067 143L1089 143L1111 143M935 187L957 165M913 187L935 165M1111 187L1133 165L1155 143M1485 143L1507 165L1529 187L1551 187M1529 143L1551 121M1221 187L1243 165L1265 165L1287 165L1309 165L1331 165L1353 165L1375 165L1397 165L1419 143M1441 165L1463 165L1485 165L1507 187L1529 209L1551 209M1089 187L1111 165M869 187L891 165L913 165M583 253L605 231L627 231M1463 143L1485 121L1507 121L1529 121L1551 99M319 275L341 275M-11 275L11 275L33 275L55 275L77 275L99 275L121 275L143 275L165 275L187 275L209 275L231 275L253 275L275 275L297 275L319 275L341 253L363 253L385 253L407 253L429 253L451 253L473 253L495 253L517 253L539 253L561 253L583 253L605 253L627 253L649 253L671 231L693 209L715 209L737 209L759 209L781 209L803 209L825 209L847 209L869 187L891 187L913 187L935 187L957 187L979 187L1001 187L1023 187L1045 187L1067 187L1089 187L1111 187L1133 187L1155 165L1177 165L1199 165L1221 187L1243 187L1265 187L1287 187L1309 187L1331 187L1353 187L1375 187L1397 187L1419 165L1441 165L1463 143L1485 143L1507 143L1529 143L1551 143" stroke="rgba(255, 255, 255, 1)" stroke-width="3.67"></path>
            <path d="M1545.5 143 a5.5 5.5 0 1 0 11 0 a5.5 5.5 0 1 0 -11 0zM1061.5 165 a5.5 5.5 0 1 0 11 0 a5.5 5.5 0 1 0 -11 0zM797.5 187 a5.5 5.5 0 1 0 11 0 a5.5 5.5 0 1 0 -11 0zM1149.5 187 a5.5 5.5 0 1 0 11 0 a5.5 5.5 0 1 0 -11 0zM797.5 165 a5.5 5.5 0 1 0 11 0 a5.5 5.5 0 1 0 -11 0zM1545.5 165 a5.5 5.5 0 1 0 11 0 a5.5 5.5 0 1 0 -11 0zM1105.5 143 a5.5 5.5 0 1 0 11 0 a5.5 5.5 0 1 0 -11 0zM951.5 165 a5.5 5.5 0 1 0 11 0 a5.5 5.5 0 1 0 -11 0zM929.5 165 a5.5 5.5 0 1 0 11 0 a5.5 5.5 0 1 0 -11 0zM1149.5 143 a5.5 5.5 0 1 0 11 0 a5.5 5.5 0 1 0 -11 0zM1545.5 187 a5.5 5.5 0 1 0 11 0 a5.5 5.5 0 1 0 -11 0zM1545.5 121 a5.5 5.5 0 1 0 11 0 a5.5 5.5 0 1 0 -11 0zM1413.5 143 a5.5 5.5 0 1 0 11 0 a5.5 5.5 0 1 0 -11 0zM1545.5 209 a5.5 5.5 0 1 0 11 0 a5.5 5.5 0 1 0 -11 0zM1105.5 165 a5.5 5.5 0 1 0 11 0 a5.5 5.5 0 1 0 -11 0zM907.5 165 a5.5 5.5 0 1 0 11 0 a5.5 5.5 0 1 0 -11 0zM621.5 231 a5.5 5.5 0 1 0 11 0 a5.5 5.5 0 1 0 -11 0zM1545.5 99 a5.5 5.5 0 1 0 11 0 a5.5 5.5 0 1 0 -11 0zM335.5 275 a5.5 5.5 0 1 0 11 0 a5.5 5.5 0 1 0 -11 0z" fill="rgba(255, 255, 255, 1)"></path>
            <path d="M1001 781L1023 803L1045 803L1067 803L1089 803L1111 803L1133 781L1155 781M1221 759L1243 781L1265 781L1287 781L1309 781L1331 803L1353 803L1375 803L1397 803L1419 803L1441 803L1463 803L1485 803L1507 803L1529 825L1551 825M605 781L627 803L649 803L671 803L693 803L715 803L737 803L759 803L781 803L803 781L825 781M517 737L539 737L561 737L583 737M253 693L275 715L297 737L319 737M935 759L957 781M671 759L693 781L715 781M869 737L891 759L913 781L935 781M825 737L847 759L869 759L891 781M649 759L671 781M979 781L1001 803L1023 825L1045 825M363 737L385 759L407 759L429 781L451 781L473 803L495 803M759 737L781 759L803 759L825 759M451 737L473 759L495 759L517 759L539 781M-11 627L11 649L33 649L55 649L77 671L99 671L121 671L143 671L165 671L187 693L209 693L231 693L253 693L275 693L297 715L319 715L341 737L363 737L385 737L407 737L429 737L451 737L473 737L495 737L517 737L539 759L561 759L583 759L605 781L627 781L649 759L671 759L693 759L715 737L737 737L759 737L781 737L803 737L825 737L847 737L869 737L891 737L913 759L935 759L957 759L979 781L1001 781L1023 781L1045 781L1067 781L1089 759L1111 759L1133 759L1155 759L1177 759L1199 759L1221 759L1243 759" stroke="rgba(255, 0, 0, 1)" stroke-width="3.67"></path>
            <path d="M1237.5 759 a5.5 5.5 0 1 0 11 0 a5.5 5.5 0 1 0 -11 0zM1149.5 781 a5.5 5.5 0 1 0 11 0 a5.5 5.5 0 1 0 -11 0zM1545.5 825 a5.5 5.5 0 1 0 11 0 a5.5 5.5 0 1 0 -11 0zM819.5 781 a5.5 5.5 0 1 0 11 0 a5.5 5.5 0 1 0 -11 0zM577.5 737 a5.5 5.5 0 1 0 11 0 a5.5 5.5 0 1 0 -11 0zM313.5 737 a5.5 5.5 0 1 0 11 0 a5.5 5.5 0 1 0 -11 0zM951.5 781 a5.5 5.5 0 1 0 11 0 a5.5 5.5 0 1 0 -11 0zM709.5 781 a5.5 5.5 0 1 0 11 0 a5.5 5.5 0 1 0 -11 0zM929.5 781 a5.5 5.5 0 1 0 11 0 a5.5 5.5 0 1 0 -11 0zM885.5 781 a5.5 5.5 0 1 0 11 0 a5.5 5.5 0 1 0 -11 0zM665.5 781 a5.5 5.5 0 1 0 11 0 a5.5 5.5 0 1 0 -11 0zM1039.5 825 a5.5 5.5 0 1 0 11 0 a5.5 5.5 0 1 0 -11 0zM489.5 803 a5.5 5.5 0 1 0 11 0 a5.5 5.5 0 1 0 -11 0zM819.5 759 a5.5 5.5 0 1 0 11 0 a5.5 5.5 0 1 0 -11 0zM533.5 781 a5.5 5.5 0 1 0 11 0 a5.5 5.5 0 1 0 -11 0z" fill="rgba(255, 0, 0, 1)"></path>
            <path d="M-11 253L11 253L33 253L55 253L77 253L99 253" stroke="rgba(255, 0, 0, 1)" stroke-width="3.67"></path>
            <path d="M93.5 253 a5.5 5.5 0 1 0 11 0 a5.5 5.5 0 1 0 -11 0z" fill="rgba(255, 0, 0, 1)"></path>
            <path d="M11 671L33 693L55 715L77 737L99 737M-11 649L11 671L33 671L55 671L77 693L99 693" stroke="rgba(255, 255, 255, 1)" stroke-width="3.67"></path>
            <path d="M93.5 693 a5.5 5.5 0 1 0 11 0 a5.5 5.5 0 1 0 -11 0zM93.5 737 a5.5 5.5 0 1 0 11 0 a5.5 5.5 0 1 0 -11 0z" fill="rgba(255, 255, 255, 1)"></path>
            <path d="M385 231L407 209M121 231L143 231L165 231L187 231M253 253L275 231L297 231M209 253L231 231L253 231L275 209L297 209L319 209L341 209M33 231L55 209L77 209L99 209L121 209M429 231L451 209L473 209L495 209L517 209M-11 231L11 231L33 231L55 231L77 231L99 231L121 231L143 253L165 253L187 253L209 253L231 253L253 253L275 253L297 253L319 253L341 231L363 231L385 231L407 231L429 231L451 231L473 231L495 231L517 231L539 231" stroke="rgba(193, 193, 193, 1)" stroke-width="3.67"></path>
            <path d="M533.5 231 a5.5 5.5 0 1 0 11 0 a5.5 5.5 0 1 0 -11 0zM401.5 209 a5.5 5.5 0 1 0 11 0 a5.5 5.5 0 1 0 -11 0zM181.5 231 a5.5 5.5 0 1 0 11 0 a5.5 5.5 0 1 0 -11 0zM291.5 231 a5.5 5.5 0 1 0 11 0 a5.5 5.5 0 1 0 -11 0zM335.5 209 a5.5 5.5 0 1 0 11 0 a5.5 5.5 0 1 0 -11 0zM115.5 209 a5.5 5.5 0 1 0 11 0 a5.5 5.5 0 1 0 -11 0zM511.5 209 a5.5 5.5 0 1 0 11 0 a5.5 5.5 0 1 0 -11 0z" fill="rgba(193, 193, 193, 1)"></path>
        </g>
    </g>
    <defs>
        <mask id="SvgjsMask1753">
            <rect width="1600" height="900" fill="#ffffff"></rect>
        </mask>
        <mask id="SvgjsMask1754">
            <rect width="1600" height="900" fill="white"></rect>
            <path d="M1438.25 561 a2.75 2.75 0 1 0 5.5 0 a2.75 2.75 0 1 0 -5.5 0zM734.25 451 a2.75 2.75 0 1 0 5.5 0 a2.75 2.75 0 1 0 -5.5 0zM932.25 473 a2.75 2.75 0 1 0 5.5 0 a2.75 2.75 0 1 0 -5.5 0zM1196.25 517 a2.75 2.75 0 1 0 5.5 0 a2.75 2.75 0 1 0 -5.5 0zM668.25 517 a2.75 2.75 0 1 0 5.5 0 a2.75 2.75 0 1 0 -5.5 0zM250.25 451 a2.75 2.75 0 1 0 5.5 0 a2.75 2.75 0 1 0 -5.5 0zM1438.25 539 a2.75 2.75 0 1 0 5.5 0 a2.75 2.75 0 1 0 -5.5 0zM778.25 517 a2.75 2.75 0 1 0 5.5 0 a2.75 2.75 0 1 0 -5.5 0zM184.25 451 a2.75 2.75 0 1 0 5.5 0 a2.75 2.75 0 1 0 -5.5 0zM1152.25 517 a2.75 2.75 0 1 0 5.5 0 a2.75 2.75 0 1 0 -5.5 0zM778.25 429 a2.75 2.75 0 1 0 5.5 0 a2.75 2.75 0 1 0 -5.5 0zM514.25 429 a2.75 2.75 0 1 0 5.5 0 a2.75 2.75 0 1 0 -5.5 0zM1262.25 561 a2.75 2.75 0 1 0 5.5 0 a2.75 2.75 0 1 0 -5.5 0zM712.25 429 a2.75 2.75 0 1 0 5.5 0 a2.75 2.75 0 1 0 -5.5 0zM1460.25 605 a2.75 2.75 0 1 0 5.5 0 a2.75 2.75 0 1 0 -5.5 0zM1130.25 517 a2.75 2.75 0 1 0 5.5 0 a2.75 2.75 0 1 0 -5.5 0zM536.25 495 a2.75 2.75 0 1 0 5.5 0 a2.75 2.75 0 1 0 -5.5 0z" fill="black"></path>
            <path d="M1108.25 363 a2.75 2.75 0 1 0 5.5 0 a2.75 2.75 0 1 0 -5.5 0zM910.25 319 a2.75 2.75 0 1 0 5.5 0 a2.75 2.75 0 1 0 -5.5 0zM1064.25 385 a2.75 2.75 0 1 0 5.5 0 a2.75 2.75 0 1 0 -5.5 0zM1152.25 341 a2.75 2.75 0 1 0 5.5 0 a2.75 2.75 0 1 0 -5.5 0zM580.25 407 a2.75 2.75 0 1 0 5.5 0 a2.75 2.75 0 1 0 -5.5 0zM250.25 407 a2.75 2.75 0 1 0 5.5 0 a2.75 2.75 0 1 0 -5.5 0zM844.25 319 a2.75 2.75 0 1 0 5.5 0 a2.75 2.75 0 1 0 -5.5 0zM1240.25 319 a2.75 2.75 0 1 0 5.5 0 a2.75 2.75 0 1 0 -5.5 0zM910.25 297 a2.75 2.75 0 1 0 5.5 0 a2.75 2.75 0 1 0 -5.5 0zM316.25 407 a2.75 2.75 0 1 0 5.5 0 a2.75 2.75 0 1 0 -5.5 0zM1042.25 407 a2.75 2.75 0 1 0 5.5 0 a2.75 2.75 0 1 0 -5.5 0zM932.25 385 a2.75 2.75 0 1 0 5.5 0 a2.75 2.75 0 1 0 -5.5 0zM228.25 407 a2.75 2.75 0 1 0 5.5 0 a2.75 2.75 0 1 0 -5.5 0zM1306.25 275 a2.75 2.75 0 1 0 5.5 0 a2.75 2.75 0 1 0 -5.5 0z" fill="black"></path>
            <path d="M382.25 517 a2.75 2.75 0 1 0 5.5 0 a2.75 2.75 0 1 0 -5.5 0zM228.25 517 a2.75 2.75 0 1 0 5.5 0 a2.75 2.75 0 1 0 -5.5 0zM140.25 517 a2.75 2.75 0 1 0 5.5 0 a2.75 2.75 0 1 0 -5.5 0zM294.25 517 a2.75 2.75 0 1 0 5.5 0 a2.75 2.75 0 1 0 -5.5 0zM118.25 517 a2.75 2.75 0 1 0 5.5 0 a2.75 2.75 0 1 0 -5.5 0z" fill="black"></path>
            <path d="M1064.25 275 a2.75 2.75 0 1 0 5.5 0 a2.75 2.75 0 1 0 -5.5 0zM514.25 385 a2.75 2.75 0 1 0 5.5 0 a2.75 2.75 0 1 0 -5.5 0zM1064.25 253 a2.75 2.75 0 1 0 5.5 0 a2.75 2.75 0 1 0 -5.5 0zM404.25 385 a2.75 2.75 0 1 0 5.5 0 a2.75 2.75 0 1 0 -5.5 0zM668.25 319 a2.75 2.75 0 1 0 5.5 0 a2.75 2.75 0 1 0 -5.5 0zM976.25 297 a2.75 2.75 0 1 0 5.5 0 a2.75 2.75 0 1 0 -5.5 0zM954.25 297 a2.75 2.75 0 1 0 5.5 0 a2.75 2.75 0 1 0 -5.5 0zM206.25 407 a2.75 2.75 0 1 0 5.5 0 a2.75 2.75 0 1 0 -5.5 0zM998.25 253 a2.75 2.75 0 1 0 5.5 0 a2.75 2.75 0 1 0 -5.5 0zM888.25 253 a2.75 2.75 0 1 0 5.5 0 a2.75 2.75 0 1 0 -5.5 0zM162.25 407 a2.75 2.75 0 1 0 5.5 0 a2.75 2.75 0 1 0 -5.5 0zM1042.25 297 a2.75 2.75 0 1 0 5.5 0 a2.75 2.75 0 1 0 -5.5 0zM756.25 297 a2.75 2.75 0 1 0 5.5 0 a2.75 2.75 0 1 0 -5.5 0z" fill="black"></path>
            <path d="M1526.25 649 a2.75 2.75 0 1 0 5.5 0 a2.75 2.75 0 1 0 -5.5 0zM1042.25 583 a2.75 2.75 0 1 0 5.5 0 a2.75 2.75 0 1 0 -5.5 0zM1196.25 561 a2.75 2.75 0 1 0 5.5 0 a2.75 2.75 0 1 0 -5.5 0zM1526.25 671 a2.75 2.75 0 1 0 5.5 0 a2.75 2.75 0 1 0 -5.5 0zM888.25 583 a2.75 2.75 0 1 0 5.5 0 a2.75 2.75 0 1 0 -5.5 0zM624.25 517 a2.75 2.75 0 1 0 5.5 0 a2.75 2.75 0 1 0 -5.5 0zM558.25 583 a2.75 2.75 0 1 0 5.5 0 a2.75 2.75 0 1 0 -5.5 0zM1394.25 583 a2.75 2.75 0 1 0 5.5 0 a2.75 2.75 0 1 0 -5.5 0zM1372.25 605 a2.75 2.75 0 1 0 5.5 0 a2.75 2.75 0 1 0 -5.5 0zM822.25 583 a2.75 2.75 0 1 0 5.5 0 a2.75 2.75 0 1 0 -5.5 0zM360.25 539 a2.75 2.75 0 1 0 5.5 0 a2.75 2.75 0 1 0 -5.5 0zM1504.25 627 a2.75 2.75 0 1 0 5.5 0 a2.75 2.75 0 1 0 -5.5 0zM1438.25 605 a2.75 2.75 0 1 0 5.5 0 a2.75 2.75 0 1 0 -5.5 0zM514.25 583 a2.75 2.75 0 1 0 5.5 0 a2.75 2.75 0 1 0 -5.5 0zM514.25 539 a2.75 2.75 0 1 0 5.5 0 a2.75 2.75 0 1 0 -5.5 0zM602.25 517 a2.75 2.75 0 1 0 5.5 0 a2.75 2.75 0 1 0 -5.5 0zM668.25 561 a2.75 2.75 0 1 0 5.5 0 a2.75 2.75 0 1 0 -5.5 0zM1416.25 605 a2.75 2.75 0 1 0 5.5 0 a2.75 2.75 0 1 0 -5.5 0z" fill="black"></path>
            <path d="M1416.25 209 a2.75 2.75 0 1 0 5.5 0 a2.75 2.75 0 1 0 -5.5 0zM1548.25 231 a2.75 2.75 0 1 0 5.5 0 a2.75 2.75 0 1 0 -5.5 0zM1416.25 253 a2.75 2.75 0 1 0 5.5 0 a2.75 2.75 0 1 0 -5.5 0zM998.25 231 a2.75 2.75 0 1 0 5.5 0 a2.75 2.75 0 1 0 -5.5 0zM1130.25 231 a2.75 2.75 0 1 0 5.5 0 a2.75 2.75 0 1 0 -5.5 0zM976.25 231 a2.75 2.75 0 1 0 5.5 0 a2.75 2.75 0 1 0 -5.5 0zM1108.25 231 a2.75 2.75 0 1 0 5.5 0 a2.75 2.75 0 1 0 -5.5 0zM1262.25 253 a2.75 2.75 0 1 0 5.5 0 a2.75 2.75 0 1 0 -5.5 0zM756.25 231 a2.75 2.75 0 1 0 5.5 0 a2.75 2.75 0 1 0 -5.5 0zM1042.25 231 a2.75 2.75 0 1 0 5.5 0 a2.75 2.75 0 1 0 -5.5 0zM1196.25 187 a2.75 2.75 0 1 0 5.5 0 a2.75 2.75 0 1 0 -5.5 0zM734.25 231 a2.75 2.75 0 1 0 5.5 0 a2.75 2.75 0 1 0 -5.5 0zM1196.25 231 a2.75 2.75 0 1 0 5.5 0 a2.75 2.75 0 1 0 -5.5 0zM954.25 231 a2.75 2.75 0 1 0 5.5 0 a2.75 2.75 0 1 0 -5.5 0zM140.25 363 a2.75 2.75 0 1 0 5.5 0 a2.75 2.75 0 1 0 -5.5 0zM118.25 363 a2.75 2.75 0 1 0 5.5 0 a2.75 2.75 0 1 0 -5.5 0z" fill="black"></path>
            <path d="M1284.25 627 a2.75 2.75 0 1 0 5.5 0 a2.75 2.75 0 1 0 -5.5 0zM888.25 627 a2.75 2.75 0 1 0 5.5 0 a2.75 2.75 0 1 0 -5.5 0zM1130.25 583 a2.75 2.75 0 1 0 5.5 0 a2.75 2.75 0 1 0 -5.5 0zM712.25 605 a2.75 2.75 0 1 0 5.5 0 a2.75 2.75 0 1 0 -5.5 0zM316.25 583 a2.75 2.75 0 1 0 5.5 0 a2.75 2.75 0 1 0 -5.5 0zM1042.25 649 a2.75 2.75 0 1 0 5.5 0 a2.75 2.75 0 1 0 -5.5 0zM1020.25 583 a2.75 2.75 0 1 0 5.5 0 a2.75 2.75 0 1 0 -5.5 0zM954.25 583 a2.75 2.75 0 1 0 5.5 0 a2.75 2.75 0 1 0 -5.5 0zM690.25 605 a2.75 2.75 0 1 0 5.5 0 a2.75 2.75 0 1 0 -5.5 0zM1504.25 693 a2.75 2.75 0 1 0 5.5 0 a2.75 2.75 0 1 0 -5.5 0zM1460.25 693 a2.75 2.75 0 1 0 5.5 0 a2.75 2.75 0 1 0 -5.5 0zM1262.25 693 a2.75 2.75 0 1 0 5.5 0 a2.75 2.75 0 1 0 -5.5 0zM756.25 583 a2.75 2.75 0 1 0 5.5 0 a2.75 2.75 0 1 0 -5.5 0zM844.25 649 a2.75 2.75 0 1 0 5.5 0 a2.75 2.75 0 1 0 -5.5 0zM1306.25 605 a2.75 2.75 0 1 0 5.5 0 a2.75 2.75 0 1 0 -5.5 0zM646.25 605 a2.75 2.75 0 1 0 5.5 0 a2.75 2.75 0 1 0 -5.5 0z" fill="black"></path>
            <path d="M690.25 231 a2.75 2.75 0 1 0 5.5 0 a2.75 2.75 0 1 0 -5.5 0zM624.25 275 a2.75 2.75 0 1 0 5.5 0 a2.75 2.75 0 1 0 -5.5 0zM96.25 363 a2.75 2.75 0 1 0 5.5 0 a2.75 2.75 0 1 0 -5.5 0zM558.25 297 a2.75 2.75 0 1 0 5.5 0 a2.75 2.75 0 1 0 -5.5 0zM382.25 341 a2.75 2.75 0 1 0 5.5 0 a2.75 2.75 0 1 0 -5.5 0z" fill="black"></path>
            <path d="M976.25 671 a2.75 2.75 0 1 0 5.5 0 a2.75 2.75 0 1 0 -5.5 0zM536.25 649 a2.75 2.75 0 1 0 5.5 0 a2.75 2.75 0 1 0 -5.5 0zM822.25 649 a2.75 2.75 0 1 0 5.5 0 a2.75 2.75 0 1 0 -5.5 0zM756.25 627 a2.75 2.75 0 1 0 5.5 0 a2.75 2.75 0 1 0 -5.5 0zM426.25 649 a2.75 2.75 0 1 0 5.5 0 a2.75 2.75 0 1 0 -5.5 0zM580.25 649 a2.75 2.75 0 1 0 5.5 0 a2.75 2.75 0 1 0 -5.5 0zM690.25 627 a2.75 2.75 0 1 0 5.5 0 a2.75 2.75 0 1 0 -5.5 0zM668.25 627 a2.75 2.75 0 1 0 5.5 0 a2.75 2.75 0 1 0 -5.5 0zM646.25 627 a2.75 2.75 0 1 0 5.5 0 a2.75 2.75 0 1 0 -5.5 0zM624.25 627 a2.75 2.75 0 1 0 5.5 0 a2.75 2.75 0 1 0 -5.5 0zM932.25 693 a2.75 2.75 0 1 0 5.5 0 a2.75 2.75 0 1 0 -5.5 0z" fill="black"></path>
            <path d="M470.25 297 a2.75 2.75 0 1 0 5.5 0 a2.75 2.75 0 1 0 -5.5 0z" fill="black"></path>
            <path d="M1218.25 715 a2.75 2.75 0 1 0 5.5 0 a2.75 2.75 0 1 0 -5.5 0zM800.25 693 a2.75 2.75 0 1 0 5.5 0 a2.75 2.75 0 1 0 -5.5 0zM910.25 693 a2.75 2.75 0 1 0 5.5 0 a2.75 2.75 0 1 0 -5.5 0zM1240.25 693 a2.75 2.75 0 1 0 5.5 0 a2.75 2.75 0 1 0 -5.5 0zM1064.25 715 a2.75 2.75 0 1 0 5.5 0 a2.75 2.75 0 1 0 -5.5 0zM338.25 649 a2.75 2.75 0 1 0 5.5 0 a2.75 2.75 0 1 0 -5.5 0zM690.25 693 a2.75 2.75 0 1 0 5.5 0 a2.75 2.75 0 1 0 -5.5 0zM954.25 715 a2.75 2.75 0 1 0 5.5 0 a2.75 2.75 0 1 0 -5.5 0zM1130.25 693 a2.75 2.75 0 1 0 5.5 0 a2.75 2.75 0 1 0 -5.5 0zM646.25 693 a2.75 2.75 0 1 0 5.5 0 a2.75 2.75 0 1 0 -5.5 0zM1086.25 693 a2.75 2.75 0 1 0 5.5 0 a2.75 2.75 0 1 0 -5.5 0z" fill="black"></path>
            <path d="M74.25 319 a2.75 2.75 0 1 0 5.5 0 a2.75 2.75 0 1 0 -5.5 0z" fill="black"></path>
            <path d="M1328.25 759 a2.75 2.75 0 1 0 5.5 0 a2.75 2.75 0 1 0 -5.5 0zM536.25 715 a2.75 2.75 0 1 0 5.5 0 a2.75 2.75 0 1 0 -5.5 0zM690.25 737 a2.75 2.75 0 1 0 5.5 0 a2.75 2.75 0 1 0 -5.5 0zM228.25 649 a2.75 2.75 0 1 0 5.5 0 a2.75 2.75 0 1 0 -5.5 0zM404.25 715 a2.75 2.75 0 1 0 5.5 0 a2.75 2.75 0 1 0 -5.5 0zM1284.25 715 a2.75 2.75 0 1 0 5.5 0 a2.75 2.75 0 1 0 -5.5 0zM580.25 693 a2.75 2.75 0 1 0 5.5 0 a2.75 2.75 0 1 0 -5.5 0zM382.25 715 a2.75 2.75 0 1 0 5.5 0 a2.75 2.75 0 1 0 -5.5 0zM1328.25 781 a2.75 2.75 0 1 0 5.5 0 a2.75 2.75 0 1 0 -5.5 0zM1064.25 759 a2.75 2.75 0 1 0 5.5 0 a2.75 2.75 0 1 0 -5.5 0zM1042.25 759 a2.75 2.75 0 1 0 5.5 0 a2.75 2.75 0 1 0 -5.5 0zM998.25 759 a2.75 2.75 0 1 0 5.5 0 a2.75 2.75 0 1 0 -5.5 0zM1262.25 715 a2.75 2.75 0 1 0 5.5 0 a2.75 2.75 0 1 0 -5.5 0z" fill="black"></path>
            <path d="M580.25 275 a2.75 2.75 0 1 0 5.5 0 a2.75 2.75 0 1 0 -5.5 0zM360.25 275 a2.75 2.75 0 1 0 5.5 0 a2.75 2.75 0 1 0 -5.5 0z" fill="black"></path>
            <path d="M338.25 715 a2.75 2.75 0 1 0 5.5 0 a2.75 2.75 0 1 0 -5.5 0zM184.25 649 a2.75 2.75 0 1 0 5.5 0 a2.75 2.75 0 1 0 -5.5 0z" fill="black"></path>
            <path d="M1548.25 143 a2.75 2.75 0 1 0 5.5 0 a2.75 2.75 0 1 0 -5.5 0zM1064.25 165 a2.75 2.75 0 1 0 5.5 0 a2.75 2.75 0 1 0 -5.5 0zM800.25 187 a2.75 2.75 0 1 0 5.5 0 a2.75 2.75 0 1 0 -5.5 0zM1152.25 187 a2.75 2.75 0 1 0 5.5 0 a2.75 2.75 0 1 0 -5.5 0zM800.25 165 a2.75 2.75 0 1 0 5.5 0 a2.75 2.75 0 1 0 -5.5 0zM1548.25 165 a2.75 2.75 0 1 0 5.5 0 a2.75 2.75 0 1 0 -5.5 0zM1108.25 143 a2.75 2.75 0 1 0 5.5 0 a2.75 2.75 0 1 0 -5.5 0zM954.25 165 a2.75 2.75 0 1 0 5.5 0 a2.75 2.75 0 1 0 -5.5 0zM932.25 165 a2.75 2.75 0 1 0 5.5 0 a2.75 2.75 0 1 0 -5.5 0zM1152.25 143 a2.75 2.75 0 1 0 5.5 0 a2.75 2.75 0 1 0 -5.5 0zM1548.25 187 a2.75 2.75 0 1 0 5.5 0 a2.75 2.75 0 1 0 -5.5 0zM1548.25 121 a2.75 2.75 0 1 0 5.5 0 a2.75 2.75 0 1 0 -5.5 0zM1416.25 143 a2.75 2.75 0 1 0 5.5 0 a2.75 2.75 0 1 0 -5.5 0zM1548.25 209 a2.75 2.75 0 1 0 5.5 0 a2.75 2.75 0 1 0 -5.5 0zM1108.25 165 a2.75 2.75 0 1 0 5.5 0 a2.75 2.75 0 1 0 -5.5 0zM910.25 165 a2.75 2.75 0 1 0 5.5 0 a2.75 2.75 0 1 0 -5.5 0zM624.25 231 a2.75 2.75 0 1 0 5.5 0 a2.75 2.75 0 1 0 -5.5 0zM1548.25 99 a2.75 2.75 0 1 0 5.5 0 a2.75 2.75 0 1 0 -5.5 0zM338.25 275 a2.75 2.75 0 1 0 5.5 0 a2.75 2.75 0 1 0 -5.5 0z" fill="black"></path>
            <path d="M1240.25 759 a2.75 2.75 0 1 0 5.5 0 a2.75 2.75 0 1 0 -5.5 0zM1152.25 781 a2.75 2.75 0 1 0 5.5 0 a2.75 2.75 0 1 0 -5.5 0zM1548.25 825 a2.75 2.75 0 1 0 5.5 0 a2.75 2.75 0 1 0 -5.5 0zM822.25 781 a2.75 2.75 0 1 0 5.5 0 a2.75 2.75 0 1 0 -5.5 0zM580.25 737 a2.75 2.75 0 1 0 5.5 0 a2.75 2.75 0 1 0 -5.5 0zM316.25 737 a2.75 2.75 0 1 0 5.5 0 a2.75 2.75 0 1 0 -5.5 0zM954.25 781 a2.75 2.75 0 1 0 5.5 0 a2.75 2.75 0 1 0 -5.5 0zM712.25 781 a2.75 2.75 0 1 0 5.5 0 a2.75 2.75 0 1 0 -5.5 0zM932.25 781 a2.75 2.75 0 1 0 5.5 0 a2.75 2.75 0 1 0 -5.5 0zM888.25 781 a2.75 2.75 0 1 0 5.5 0 a2.75 2.75 0 1 0 -5.5 0zM668.25 781 a2.75 2.75 0 1 0 5.5 0 a2.75 2.75 0 1 0 -5.5 0zM1042.25 825 a2.75 2.75 0 1 0 5.5 0 a2.75 2.75 0 1 0 -5.5 0zM492.25 803 a2.75 2.75 0 1 0 5.5 0 a2.75 2.75 0 1 0 -5.5 0zM822.25 759 a2.75 2.75 0 1 0 5.5 0 a2.75 2.75 0 1 0 -5.5 0zM536.25 781 a2.75 2.75 0 1 0 5.5 0 a2.75 2.75 0 1 0 -5.5 0z" fill="black"></path>
            <path d="M96.25 253 a2.75 2.75 0 1 0 5.5 0 a2.75 2.75 0 1 0 -5.5 0z" fill="black"></path>
            <path d="M96.25 693 a2.75 2.75 0 1 0 5.5 0 a2.75 2.75 0 1 0 -5.5 0zM96.25 737 a2.75 2.75 0 1 0 5.5 0 a2.75 2.75 0 1 0 -5.5 0z" fill="black"></path>
            <path d="M536.25 231 a2.75 2.75 0 1 0 5.5 0 a2.75 2.75 0 1 0 -5.5 0zM404.25 209 a2.75 2.75 0 1 0 5.5 0 a2.75 2.75 0 1 0 -5.5 0zM184.25 231 a2.75 2.75 0 1 0 5.5 0 a2.75 2.75 0 1 0 -5.5 0zM294.25 231 a2.75 2.75 0 1 0 5.5 0 a2.75 2.75 0 1 0 -5.5 0zM338.25 209 a2.75 2.75 0 1 0 5.5 0 a2.75 2.75 0 1 0 -5.5 0zM118.25 209 a2.75 2.75 0 1 0 5.5 0 a2.75 2.75 0 1 0 -5.5 0zM514.25 209 a2.75 2.75 0 1 0 5.5 0 a2.75 2.75 0 1 0 -5.5 0z" fill="black"></path>
        </mask>
    </defs>
</svg>